<?xml version="1.0" encoding="UTF-8"?>
<svg id="Layer_1" xmlns="http://www.w3.org/2000/svg" version="1.1" viewBox="0 0 2500 973">
  <!-- Generator: Adobe Illustrator 29.1.0, SVG Export Plug-In . SVG Version: 2.1.0 Build 142)  -->
  <defs>
    <style>
      .st0 {
        fill: #fbbd71;
      }
    </style>
  </defs>
  <path class="st0" d="M1424.9,36.5c-46.6,23.3-66.8,66.8-66.8,185,0,0,23.3-23.3,60.6-37.3,27.2-10.1,46.6-23.3,60.6-33.4,40.4-30.3,46.6-66.8,46.6-130.6-.8,0-64.5-3.9-101,16.3Z"/>
  <path class="st0" d="M1139.6,63.7c-40.4,33.4-50.5,90.9-50.5,90.9l-130.6,500.5-107.2-409.6c-10.1-43.5-30.3-97.1-60.6-134.4-37.3-47.4-115-50.5-124.3-50.5s-83.9,3.1-124.3,50.5c-30.3,37.3-50.5,90.9-60.6,134.4l-101,409.6L249.8,154.7s-10.1-53.6-50.5-90.9C135.6,6.2,41.5,20.2,41.5,20.2l248.7,936.5s80.8,7,121.2-13.2c53.6-27.2,80.8-46.6,111.1-174.9,30.3-114.2,111.1-446.9,117.4-470.2,3.1-10.1,10.1-40.4,30.3-40.4s27.2,27.2,30.3,40.4c7,23.3,87,355.9,117.4,470.2,33.4,127.5,56.7,147.7,111.1,174.9s121.2,13.2,121.2,13.2L1297.4,20.2s-94-13.2-157.8,43.5ZM1525.1,171s-17.1,23.3-50.5,43.5c-23.3,13.2-43.5,20.2-66.8,33.4-40.4,20.2-50.5,40.4-50.5,70.7v634.9s63.7,7,104.1-13.2c53.6-27.2,63.7-53.6,63.7-167.9V171ZM2143,490.4L2458.5,23.3S2327.9,0,2260.3,60.6c-43.5,37.3-87,107.2-87,107.2l-114.2,167.9c-7,10.1-13.2,17.1-23.3,17.1s-20.2-10.1-23.3-17.1l-114.2-167.9s-46.6-66.8-87-107.2C1744.3,0,1612.9,23.3,1612.9,23.3l305.4,466.3-312.4,466.3s137.6,17.1,205.2-43.5c43.5-37.3,83.9-101,83.9-101l114.2-167.9c7-10.1,13.2-17.1,23.3-17.1s20.2,10.1,23.3,17.1l114.2,167.9s43.5,63.7,83.9,101c66.8,60.6,201.3,43.5,201.3,43.5l-312.4-465.5Z"/>
</svg>